<svg xmlns="http://www.w3.org/2000/svg" viewBox="0 0 168 96" width="168" height="96">
	<style>
		tspan { white-space:pre }
		.shp0 { fill: #241f1f } 
		.shp1 { fill: #ffffff } 
	</style>
	<g id="Icon1">
		<path id="Rectangle 27" class="shp0" d="M130.3 26.32L167.98 26.32L167.98 26.32L167.98 60.09C167.98 67.09 162.93 72.75 156.68 72.75L141.61 72.75C135.36 72.75 130.3 67.09 130.3 60.09L130.3 26.32L130.3 26.32Z" />
		<path id="Rectangle 28" class="shp1" d="M134.07 30.54L164.22 30.54L164.22 64.31L134.07 64.31L134.07 30.54Z" />
		<g id="sedan-car-model">
			<g id="Group 125">
				<path id="Path 260" fill-rule="evenodd" class="shp0" d="M38.95 82.43C38.95 82.8 38.93 83.17 38.9 83.53C38.4 90.1 33.49 95.26 27.49 95.26C21.66 95.26 16.85 90.37 16.14 84.05C16.08 83.52 16.04 82.98 16.04 82.43C16.04 75.35 21.17 69.6 27.5 69.6C33.82 69.6 38.95 75.35 38.95 82.43ZM20.39 81.34L23.68 81.34C23.77 80.94 23.92 80.56 24.1 80.22L21.76 77.6C21.04 78.67 20.56 79.95 20.39 81.34ZM21.77 87.3L24.11 84.68C23.92 84.33 23.79 83.96 23.69 83.56L20.37 83.56C20.55 84.96 21.04 86.23 21.77 87.3ZM26.5 86.7C26.15 86.6 25.82 86.45 25.51 86.25L23.18 88.86C24.14 89.67 25.26 90.21 26.5 90.4L26.5 86.7ZM26.5 74.48C25.26 74.67 24.12 75.21 23.16 76.03L25.49 78.64C25.81 78.43 26.14 78.27 26.5 78.17L26.5 74.48ZM28.49 74.47L28.49 78.16C28.85 78.27 29.19 78.43 29.5 78.64L31.83 76.02C30.88 75.21 29.74 74.67 28.49 74.47ZM31.81 88.86L29.48 86.25C29.17 86.45 28.84 86.6 28.49 86.7L28.49 90.4C29.73 90.21 30.86 89.67 31.81 88.86ZM34.6 83.57L31.31 83.57C31.21 83.96 31.07 84.33 30.88 84.68L33.23 87.31C33.96 86.24 34.42 84.95 34.6 83.57ZM31.31 81.34L34.61 81.34C34.43 79.95 33.96 78.67 33.23 77.6L30.9 80.22C31.08 80.56 31.22 80.94 31.31 81.34L31.31 81.34Z" />
				<path id="Path 261" fill-rule="evenodd" class="shp0" d="M134.05 82.43C134.05 82.8 134.03 83.17 134 83.53C133.5 90.1 128.59 95.26 122.6 95.26C116.76 95.26 111.96 90.37 111.25 84.05C111.18 83.52 111.15 82.98 111.15 82.43C111.15 75.35 116.27 69.6 122.6 69.6C128.93 69.6 134.05 75.35 134.05 82.43ZM115.49 81.34L118.78 81.34C118.88 80.94 119.02 80.56 119.2 80.22L116.87 77.6C116.14 78.67 115.66 79.95 115.49 81.34ZM116.87 87.3L119.21 84.68C119.03 84.33 118.89 83.96 118.8 83.56L115.48 83.56C115.66 84.96 116.14 86.23 116.87 87.3ZM121.61 86.7C121.26 86.6 120.92 86.45 120.61 86.25L118.29 88.86C119.24 89.67 120.37 90.21 121.61 90.4L121.61 86.7ZM121.61 74.48C120.36 74.67 119.22 75.21 118.26 76.03L120.6 78.64C120.91 78.43 121.25 78.27 121.61 78.17L121.61 74.48ZM123.59 74.47L123.59 78.16C123.95 78.27 124.29 78.43 124.6 78.64L126.94 76.02C125.98 75.21 124.84 74.67 123.59 74.47ZM126.91 88.86L124.59 86.25C124.28 86.45 123.95 86.6 123.59 86.7L123.59 90.4C124.83 90.21 125.96 89.67 126.91 88.86ZM129.7 83.57L126.41 83.57C126.32 83.96 126.17 84.33 125.99 84.68L128.33 87.31C129.06 86.24 129.53 84.95 129.7 83.57ZM126.42 81.34L129.71 81.34C129.54 79.95 129.06 78.67 128.34 77.6L126 80.22C126.18 80.56 126.32 80.94 126.42 81.34L126.42 81.34Z" />
				<path id="Path 262" fill-rule="evenodd" class="shp0" d="M152.79 70.04C152.79 77.37 148.31 80.04 148.31 80.04L136.64 82.5L136.35 82.53C136.35 82.5 136.35 82.47 136.35 82.44C136.35 73.94 130.18 67.03 122.6 67.03C115.01 67.03 108.84 73.94 108.84 82.44C108.84 83.04 108.88 83.68 108.96 84.37C108.99 84.57 109.03 84.77 109.06 84.96L40.78 86.5C40.78 86.5 40.76 86.5 40.75 86.5C40.97 85.61 41.12 84.69 41.19 83.73C41.22 83.31 41.25 82.87 41.25 82.44C41.25 73.94 35.08 67.03 27.5 67.03C19.91 67.03 13.74 73.94 13.74 82.44C13.74 83.04 13.78 83.68 13.86 84.37C13.9 84.69 13.96 85.01 14.01 85.33C9.32 84.73 5.26 83.83 3.16 82.5C1.09 78.73 0.81 73.32 1.09 72.19C1.36 71.06 1.83 68.9 3.31 64.45C4.79 59.99 32.61 53.5 35.43 53.43C44.97 48.91 61.21 40.21 64.82 38.81C86.14 30.53 108.41 37.31 113.35 38.58C118.28 39.85 132.54 46.61 136.23 47.89C138.8 48.78 144.53 49.85 147.76 50.41C149.11 50.65 150.1 51.94 150.1 53.47L150.1 62.96C150.1 62.96 152.79 65.14 152.79 70.04ZM85.65 38.94C85.65 38.94 65.22 39.29 55.08 49.6C55.08 49.6 57.35 50.56 56.88 54.84L82.37 53.96L85.65 38.94ZM112.16 47.94L108.73 41.74C108.73 41.74 101.87 38.77 89.86 38.94L87.75 53.53L110.99 52.66L112.16 47.94ZM122.2 48.26C119.89 46.91 116 44.77 111.14 42.61L117.62 52.57L124.09 52.57C124.37 50.82 123.6 49.07 122.2 48.26Z" />
			</g>
		</g>
		<path id="Rectangle 29" class="shp0" d="M130.3 13.66L167.98 13.66L167.98 22.1L130.3 22.1L130.3 13.66Z" />
		<path id="Rectangle 30" class="shp0" d="M130.3 1L167.98 1L167.98 9.44L130.3 9.44L130.3 1Z" />
	</g>
</svg>