<svg xmlns="http://www.w3.org/2000/svg" width="31.5" height="25.524" viewBox="0 0 31.5 25.524">
  <g id="Group_129" data-name="Group 129" transform="translate(-300 -548.809)">
    <g id="Group_127" data-name="Group 127" transform="translate(207 -2.5)">
      <g id="van-black-side-view" transform="translate(93 558)">
        <path id="Path_263" data-name="Path 263" d="M6.561,111.542c.788-1.308,2.833-1.736,5.2-1.736H29.226a1.694,1.694,0,0,1,1.649,1.736v11.794a1.694,1.694,0,0,1-1.649,1.736h-.875a3.443,3.443,0,0,0-6.886,0H9.619a3.666,3.666,0,0,0-1.6-2.852,3.352,3.352,0,0,0-4.766,1.125,3.758,3.758,0,0,0-.53,1.727H1.648A1.694,1.694,0,0,1,0,123.336v-4.368ZM.29,121.591a.566.566,0,0,0,.551.58h1.7a.566.566,0,0,0,.551-.58v-1.306a.566.566,0,0,0-.551-.58H.841a.566.566,0,0,0-.551.58Zm24.659.45a3.3,3.3,0,1,1-3.132,3.3A3.223,3.223,0,0,1,24.949,122.041Zm0,5.552a2.255,2.255,0,1,0-2.138-2.252A2.2,2.2,0,0,0,24.949,127.592ZM6.161,122.041a3.3,3.3,0,0,1,0,6.6,3.3,3.3,0,0,1,0-6.6Zm0,5.552a2.255,2.255,0,0,0,0-4.5,2.255,2.255,0,0,0,0,4.5Z" transform="translate(0 -109.806)" fill="#241f1f"/>
      </g>
      <path id="Path_264" data-name="Path 264" d="M2331.125,566.859l3.366-4.316a2.939,2.939,0,0,1,2.094-1.17,28.711,28.711,0,0,1,3.88,0v5.486h-9.339" transform="translate(-2234.96 -2.067)" fill="#fff"/>
      <rect id="Rectangle_34" data-name="Rectangle 34" width="2" height="7" transform="translate(112 561.5)" fill="#fff"/>
      <rect id="Rectangle_35" data-name="Rectangle 35" width="2" height="7" transform="translate(109.5 566) rotate(-90)" fill="#fff"/>
      <rect id="Rectangle_36" data-name="Rectangle 36" width="2" height="4" transform="translate(120.5 570) rotate(-90)" fill="#fff"/>
    </g>
    <path id="Rectangle_37" data-name="Rectangle 37" d="M2,0H2A2,2,0,0,1,4,2V3A0,0,0,0,1,4,3H0A0,0,0,0,1,0,3V2A2,2,0,0,1,2,0Z" transform="translate(309 553)" fill="#241f1f"/>
    <g id="Group_128" data-name="Group 128" transform="translate(0 1)">
      <path id="Path_265" data-name="Path 265" d="M2540.375,552l-1.062-1.375" transform="translate(-2232)" fill="none" stroke="#241f1f" stroke-linecap="round" stroke-width="1"/>
      <path id="Path_266" data-name="Path 266" d="M2540.375,552l-1.062-1.375" transform="translate(-1863.732 -875.581) rotate(21)" fill="none" stroke="#241f1f" stroke-linecap="round" stroke-width="1"/>
      <path id="Path_267" data-name="Path 267" d="M2540.375,552l-1.062-1.375" transform="matrix(0.53, 0.848, -0.848, 0.53, -565.529, -1896.748)" fill="none" stroke="#241f1f" stroke-linecap="round" stroke-width="1"/>
      <path id="Path_268" data-name="Path 268" d="M2540.375,552l-1.062-1.375" transform="matrix(0.105, 0.995, -0.995, 0.105, 597.65, -2032.245)" fill="none" stroke="#241f1f" stroke-linecap="round" stroke-width="1"/>
    </g>
  </g>
</svg>
